# xmcd CD database file
#
# Track frame offsets:
#	150
#	20302
#	45647
#	62987
#	88909
#	106777
#	123165
#	146928
#	168226
#	200288
#	228162
#
# Disc length: 3339 seconds
#
# Revision: 2
# Processed by: cddbd v1.5PL3 Copyright (c) Steve Scherf et al.
# Submitted via: CDex 1.40Release
#
DISCID=8e0d090b
DTITLE=KOTOKO - 空を飛べたら・・・
DYEAR=2000
DGENRE=Vocal
TTITLE0=ミルク
TTITLE1=疾風雲
TTITLE2=PhuLa PhuLa
TTITLE3=カナリヤ
TTITLE4=鼓動
TTITLE5=ゆうえんち
TTITLE6=もしも・・・
TTITLE7=アスピリン
TTITLE8=サヨナラ・ジレンマ
TTITLE9=羽
TTITLE10=春色
EXTD=YEAR: 2000 ID3G: 28
EXTT0=
EXTT1=
EXTT2=
EXTT3=
EXTT4=
EXTT5=
EXTT6=
EXTT7=
EXTT8=
EXTT9=
EXTT10=
PLAYORDER=
